<svg xmlns="http://www.w3.org/2000/svg" width="480" height="306" viewBox="0 0 480 306" role="img" aria-label="Top languages for inajaf">
  <defs>
    <linearGradient id="bg2" x1="0" y1="0" x2="1" y2="1">
      <stop offset="0%" stop-color="#0b1220"/>
      <stop offset="100%" stop-color="#0f1724"/>
    </linearGradient>
  </defs>
  <rect width="480" height="306" rx="14" fill="url(#bg2)" stroke="rgba(148,163,184,0.16)"/>
  <circle cx="22" cy="24" r="4" fill="#5dc9e2"/>
  <text x="36" y="28" font-family="ui-monospace, Menlo, Monaco, monospace" font-size="12" fill="#8b96ad" letter-spacing="1.5">TOP LANGUAGES</text>
  <text x="456" y="28" text-anchor="end" font-family="ui-monospace, Menlo, Monaco, monospace" font-size="11" fill="#5dc9e2">by bytes</text>
  <line x1="16" y1="44" x2="464" y2="44" stroke="rgba(93,201,226,0.25)" stroke-width="1"/>
  
  <text x="24" y="68" font-family="ui-sans-serif, system-ui, sans-serif" font-size="13" fill="#e6edf3">JavaScript</text>
  <text x="456" y="68" text-anchor="end" font-family="ui-monospace, Menlo, Monaco, monospace" font-size="12" fill="#8b96ad">39.5%</text>
  <rect x="24" y="76" width="320" height="8" rx="4" fill="rgba(148,163,184,0.10)"/>
  <rect x="24" y="76" width="126" height="8" rx="4" fill="#f1e05a"/>

  <text x="24" y="104" font-family="ui-sans-serif, system-ui, sans-serif" font-size="13" fill="#e6edf3">Makefile</text>
  <text x="456" y="104" text-anchor="end" font-family="ui-monospace, Menlo, Monaco, monospace" font-size="12" fill="#8b96ad">25.2%</text>
  <rect x="24" y="112" width="320" height="8" rx="4" fill="rgba(148,163,184,0.10)"/>
  <rect x="24" y="112" width="80" height="8" rx="4" fill="#427819"/>

  <text x="24" y="140" font-family="ui-sans-serif, system-ui, sans-serif" font-size="13" fill="#e6edf3">Go</text>
  <text x="456" y="140" text-anchor="end" font-family="ui-monospace, Menlo, Monaco, monospace" font-size="12" fill="#8b96ad">11.0%</text>
  <rect x="24" y="148" width="320" height="8" rx="4" fill="rgba(148,163,184,0.10)"/>
  <rect x="24" y="148" width="35" height="8" rx="4" fill="#00ADD8"/>

  <text x="24" y="176" font-family="ui-sans-serif, system-ui, sans-serif" font-size="13" fill="#e6edf3">TypeScript</text>
  <text x="456" y="176" text-anchor="end" font-family="ui-monospace, Menlo, Monaco, monospace" font-size="12" fill="#8b96ad">6.1%</text>
  <rect x="24" y="184" width="320" height="8" rx="4" fill="rgba(148,163,184,0.10)"/>
  <rect x="24" y="184" width="19" height="8" rx="4" fill="#3178c6"/>

  <text x="24" y="212" font-family="ui-sans-serif, system-ui, sans-serif" font-size="13" fill="#e6edf3">CSS</text>
  <text x="456" y="212" text-anchor="end" font-family="ui-monospace, Menlo, Monaco, monospace" font-size="12" fill="#8b96ad">6.0%</text>
  <rect x="24" y="220" width="320" height="8" rx="4" fill="rgba(148,163,184,0.10)"/>
  <rect x="24" y="220" width="19" height="8" rx="4" fill="#563d7c"/>

  <text x="24" y="248" font-family="ui-sans-serif, system-ui, sans-serif" font-size="13" fill="#e6edf3">Rust</text>
  <text x="456" y="248" text-anchor="end" font-family="ui-monospace, Menlo, Monaco, monospace" font-size="12" fill="#8b96ad">5.9%</text>
  <rect x="24" y="256" width="320" height="8" rx="4" fill="rgba(148,163,184,0.10)"/>
  <rect x="24" y="256" width="18" height="8" rx="4" fill="#dea584"/>

  <text x="24" y="294" font-family="ui-monospace, Menlo, Monaco, monospace" font-size="9" fill="#5b6478">updated 2026-08-31 13:49 UTC · self-hosted</text>
</svg>
